<svg xmlns="http://www.w3.org/2000/svg" width="18" height="18" viewBox="0 0 48 48">
  <path fill="#fbc02d" d="M43.6 20.5H42V20H24v8h11.3c-1.6 4.6-6 8-11.3 8-6.6 0-12-5.4-12-12s5.4-12 12-12c3.1 0 5.9 1.2 8 3.1l5.7-5.7C33.6 6.6 29.1 5 24 5 12.9 5 4 13.9 4 25s8.9 20 20 20c10.5 0 19.5-7.5 19.5-20 0-1.2-.1-2.1-.3-3.5z"></path>
  <path fill="#e53935" d="M6.3 14.7l6.6 4.8C14.3 16.2 18.8 13 24 13c3.1 0 5.9 1.2 8 3.1l5.7-5.7C33.6 6.6 29.1 5 24 5 16.4 5 9.6 9.4 6.3 14.7z"></path>
  <path fill="#4caf50" d="M24 45c5.1 0 9.8-1.8 13.4-4.9l-6.2-5.2c-2.1 1.6-4.8 2.6-7.2 2.6-5.3 0-9.7-3.4-11.3-8l-6.5 5c3.3 5.2 9.9 10.5 18 10.5z"></path>
  <path fill="#1565c0" d="M43.6 20.5H42V20H24v8h11.3c-1.1 3.3-3.4 5.8-6.3 7.4.1.1 6.3 5.2 6.3 5.2C38.4 37.2 43.6 31.1 43.6 20.5z"></path>
</svg>
